<svg width="128" height="128" viewBox="0 0 128 128" fill="none" xmlns="http://www.w3.org/2000/svg">
<path d="M16 8H112V66.7226C112 71.7571 111.29 76.3521 111.29 76.3521C108.741 94.9471 100.703 100.445 86.8774 107.758L64 120L41.1368 107.915C26.7377 100.617 18.5861 93.5906 16.4689 75.5688C16.4689 75.5688 16.0047 72.2538 16.0047 66.7226V8H16Z" fill="#4E95D9"/>
<path d="M21.1723 14.0328H106.828V66.4265C106.828 70.071 106.193 75.0194 106.193 75.0194C104.464 91.551 96.6631 96.8147 84.7697 103.483L64 114.149L43.7276 103.683C30.7069 96.6858 23.2374 90.6865 21.5891 74.3221C21.5891 74.3221 21.3049 72.8557 21.1723 66.4265C21.0255 59.3238 21.1723 14.0328 21.1723 14.0328Z" fill="#00479D"/>
<path d="M41.3973 23.0699H37.0065V36.5015H33.1036V23.0699H28.7128V19.2822H41.3973V23.0699Z" fill="white"/>
<path d="M48.3505 33.5496C49.3499 33.5496 50.2025 33.158 50.6903 32.6134L53.6175 34.3091C52.4239 35.9809 50.6193 36.8407 48.2984 36.8407C44.1255 36.8407 41.5394 34.013 41.5394 30.3446C41.5394 26.6762 44.1729 23.8485 48.0284 23.8485C51.5903 23.8485 54.2238 26.6285 54.2238 30.3446C54.2238 30.8605 54.1764 31.3524 54.077 31.8205H45.4186C45.8828 33.1007 47.0053 33.5401 48.3458 33.5401L48.3505 33.5496ZM50.5956 29.074C50.2072 27.6459 49.1083 27.13 48.0095 27.13C46.6169 27.13 45.6933 27.8178 45.3523 29.074H50.5956Z" fill="white"/>
<path d="M56.3505 18.5466H60.0071V36.5015H56.3505V18.5466Z" fill="white"/>
<path d="M68.7365 33.5496C69.7359 33.5496 70.5885 33.158 71.0764 32.6134L74.0035 34.3091C72.8099 35.9809 71.0053 36.8407 68.6844 36.8407C64.5115 36.8407 61.9254 34.013 61.9254 30.3446C61.9254 26.6762 64.5589 23.8485 68.4144 23.8485C71.9763 23.8485 74.6098 26.6285 74.6098 30.3446C74.6098 30.8605 74.5625 31.3524 74.463 31.8205H65.8046C66.2688 33.1007 67.3913 33.5401 68.7318 33.5401L68.7365 33.5496ZM70.9816 29.074C70.5932 27.6459 69.4944 27.13 68.3955 27.13C67.003 27.13 66.0793 27.8178 65.7383 29.074H70.9816Z" fill="white"/>
<path d="M81.5299 33.7932L80.6773 36.5015H76.4097L82.2167 19.2822H87.1948L93.0018 36.5015H88.7342L87.8816 33.7932H81.5299ZM86.6974 30.1058L84.6986 23.7864L82.6998 30.1058H86.7022H86.6974Z" fill="white"/>
<path d="M99.3961 19.2822V36.5015H95.4932V19.2822H99.3961Z" fill="white"/>
<path d="M99.3582 38.9853H28.6039V42.1044H99.3582V38.9853Z" fill="white"/>
<path d="M71.1095 90.9205C69.267 94.4599 66.7756 96.6285 64.0284 96.6285C61.2812 96.6285 58.7993 94.4647 56.9568 90.9396C56.6489 90.3521 56.3647 89.7264 56.0947 89.072C54.6217 88.8475 53.196 88.5657 51.8413 88.2266C52.0118 88.9096 52.1918 89.5735 52.3908 90.2231C54.7827 98.1235 59.0977 103.402 64.0284 103.402C68.9591 103.402 73.2883 98.114 75.6755 90.1945C75.8697 89.5544 76.0497 88.8905 76.2155 88.217C74.8561 88.5609 73.4352 88.8427 71.9621 89.072C71.6969 89.7264 71.4127 90.3473 71.1095 90.9301V90.9205Z" fill="white"/>
<path d="M56.9615 60.9956C58.7993 57.4705 61.2907 55.3067 64.0331 55.3067C66.7756 55.3067 69.2718 57.48 71.1143 61.0147C72.6868 61.201 74.212 61.4493 75.6803 61.7503C73.2931 53.8308 68.9686 48.5432 64.0331 48.5432C59.0977 48.5432 54.7874 53.8212 52.3955 61.7216C52.2013 62.3712 52.0166 63.0351 51.8461 63.7182C53.2054 63.3791 54.6264 63.0925 56.0995 62.8727C56.3694 62.2136 56.6536 61.5879 56.9615 61.0003V60.9956Z" fill="white"/>
<path d="M77.3665 81.5442C77.5512 79.7434 77.6507 77.8806 77.6507 75.97C77.6507 74.0594 77.5512 72.1965 77.3665 70.3958C76.2866 69.8274 75.0456 69.3306 73.6767 68.915C74.0746 71.117 74.2925 73.491 74.2925 75.97C74.2925 78.449 74.0746 80.8229 73.6767 83.0249C73.5441 83.7653 73.3878 84.4865 73.2125 85.1887C74.5956 84.84 75.8839 84.4149 77.0633 83.9229C77.1818 83.1443 77.2812 82.3514 77.3665 81.5442Z" fill="white"/>
<path d="M50.7045 70.3098C50.5151 72.1344 50.4156 74.0259 50.4156 75.9652C50.4156 77.9045 50.5151 79.796 50.7045 81.6206C50.7851 82.4087 50.8845 83.1825 50.9982 83.9468C52.1823 84.434 53.4707 84.8543 54.849 85.1982C54.6785 84.5104 54.5222 83.7987 54.3896 83.0679C53.987 80.8516 53.7691 78.4633 53.7691 75.9652C53.7691 73.4671 53.987 71.0788 54.3896 68.8625C54.5222 68.1317 54.6785 67.42 54.849 66.7322C53.4707 67.0761 52.1823 67.5012 50.9982 67.9836C50.8845 68.7431 50.7851 69.5217 50.7045 70.3098Z" fill="white"/>
<path d="M77.0065 67.9932C76.7839 66.5125 76.4997 65.0843 76.1634 63.7182C74.8087 63.3791 73.3878 63.0925 71.91 62.868C72.3931 64.0525 72.8147 65.3518 73.1557 66.737C74.534 67.0809 75.8271 67.506 77.0065 67.9884V67.9932Z" fill="white"/>
<path d="M78.3185 64.3153C78.7306 65.8342 79.0669 67.4295 79.3132 69.087C82.5719 70.9116 84.5565 73.3238 84.5565 75.9652C84.5565 78.6066 82.5719 81.0188 79.3132 82.8434C78.6217 83.2303 77.8638 83.5885 77.0633 83.9181C75.8792 84.4053 74.5956 84.8352 73.2125 85.1839C72.4642 85.3702 71.6921 85.5374 70.8964 85.6807C68.7413 86.0676 66.4204 86.2777 64 86.2777C61.5796 86.2777 59.2587 86.0676 57.1036 85.6807C56.3316 85.5421 55.5832 85.3797 54.8538 85.1982C53.4707 84.8543 52.1871 84.4292 51.003 83.9468C50.1788 83.6076 49.402 83.2446 48.6915 82.8434C45.4328 81.0188 43.4482 78.6066 43.4482 75.9652C43.4482 73.3238 45.4328 70.9116 48.6915 69.087C49.402 68.6905 50.1788 68.3228 51.003 67.9836C52.1871 67.4964 53.4754 67.0761 54.8538 66.7322C55.5832 66.5507 56.3316 66.3883 57.1036 66.2497C59.2587 65.8628 61.5796 65.6527 64 65.6527C66.4204 65.6527 68.7413 65.8628 70.8964 66.2497C70.6311 64.9458 70.3185 63.7277 69.9586 62.6053C68.0403 62.3903 66.0462 62.2757 63.9953 62.2757C61.9443 62.2757 59.9503 62.3903 58.032 62.6053C57.3783 62.6769 56.7294 62.7677 56.0947 62.8632C54.6217 63.0877 53.196 63.3695 51.8413 63.7086C51.1024 63.8949 50.3777 64.0955 49.6767 64.3105C41.8946 66.7226 36.7128 71.0358 36.7128 75.9604C36.7128 80.885 41.8993 85.203 49.6767 87.6151C50.3777 87.8301 51.1024 88.0307 51.8413 88.217C53.2007 88.5561 54.6217 88.8427 56.0947 89.0624C56.7342 89.158 57.3783 89.244 58.032 89.3204C59.9503 89.5353 61.9443 89.65 63.9953 89.65C66.0462 89.65 68.0403 89.5353 69.9586 89.3204C70.6359 89.244 71.3037 89.1532 71.9621 89.0529C73.4352 88.8284 74.8609 88.5418 76.2155 88.1979C76.9355 88.0164 77.6365 87.8205 78.3138 87.6104C86.0959 85.1982 91.2777 80.885 91.2777 75.9556C91.2777 71.0263 86.0912 66.7131 78.3138 64.3057L78.3185 64.3153Z" fill="white"/>
</svg>
