<svg width="128" height="128" viewBox="0 0 128 128" fill="none" xmlns="http://www.w3.org/2000/svg">
<path fill-rule="evenodd" clip-rule="evenodd" d="M63.972 8C74.2563 7.99534 81.2416 17.66 84.9558 26.0787C86.701 30.0407 88.0915 34.1427 89.1181 38.3893C89.1364 38.4639 89.1747 38.5321 89.229 38.5864C89.2833 38.6407 89.3515 38.6791 89.4261 38.6973C93.5556 39.6727 97.4892 40.9653 101.227 42.5707C106.686 44.9227 111.66 48.0307 115.58 52.5107C116.49 53.556 117.381 54.9373 118.258 56.664C121.898 63.846 119.518 71.5693 114.036 76.964C107.447 83.4507 98.2452 86.9367 89.4727 89.1347C89.4207 89.1469 89.3734 89.1742 89.3368 89.2132C89.3003 89.2523 89.2761 89.3012 89.2674 89.354C89.0994 90.4133 88.4088 92.7793 87.2003 96.4567C83.8873 106.537 76.2814 119.995 64.028 120C51.7792 120.005 44.1593 106.56 40.837 96.48C39.6238 92.8027 38.9332 90.4367 38.7558 89.3773C38.7469 89.3254 38.7232 89.2771 38.6877 89.2383C38.6521 89.1994 38.6061 89.1715 38.5552 89.158C29.7828 86.974 20.5764 83.4927 13.9784 77.0153C8.48624 71.6253 6.10182 63.902 9.73678 56.7153C10.614 54.9887 11.5006 53.6073 12.4105 52.562C16.3254 48.0727 21.2996 44.9647 26.7544 42.608C30.5672 40.9708 34.5159 39.6701 38.5552 38.7207C38.6296 38.7031 38.6976 38.6649 38.7512 38.6104C38.8049 38.5559 38.8421 38.4874 38.8585 38.4127C39.8851 34.166 41.2663 30.0593 43.0114 26.0973C46.7117 17.6693 53.6923 8.00467 63.972 8ZM91.5725 49.972L92.3938 55.992C92.4071 56.0719 92.4505 56.1437 92.5151 56.1927C94.4515 57.6767 95.7208 59.366 96.318 61.2467C96.7517 62.6205 96.8607 64.0763 96.6366 65.4994C96.4125 66.9226 95.8614 68.2744 95.0266 69.4485C94.1918 70.6226 93.096 71.5871 91.8255 72.266C90.5549 72.9449 89.1442 73.3199 87.7042 73.3613C86.3374 73.414 84.9757 73.1657 83.7154 72.6339C82.4551 72.1022 81.327 71.3 80.4109 70.2841C79.4948 69.2682 78.8131 68.0634 78.414 66.755C78.0149 65.4465 77.9081 64.0663 78.1012 62.712C78.4512 60.2853 79.7764 58.1527 82.0768 56.3233C82.1099 56.2979 82.1359 56.2643 82.1522 56.2259C82.1686 56.1875 82.1747 56.1455 82.1701 56.104C81.6942 51.54 80.7189 47.186 79.5617 42.1367C78.1619 36.0233 76.1694 30.3347 72.7957 24.8467C72.1231 23.73 71.3314 22.6895 70.4346 21.7433C68.1949 19.438 65.7824 17.5573 62.5208 18.346C60.2997 18.8873 57.5326 21.398 56.2681 23.2133C53.3643 27.4 51.1596 32.0305 49.7401 36.924C49.7446 36.9471 49.7577 36.9676 49.7767 36.9815C49.7958 36.9953 49.8193 37.0015 49.8427 36.9987L57.2526 36.6533C57.3333 36.6498 57.4097 36.6166 57.4673 36.56C60.4443 33.6107 64.7932 33.0133 68.3722 35.1227C69.856 35.9953 71.0272 37.3533 71.8905 39.1967C74.0183 43.756 71.3165 49.1833 66.9443 50.7793C62.8427 52.2773 58.5452 50.7513 56.2401 47.004C56.2102 46.956 56.1681 46.9169 56.1181 46.8906C56.068 46.8644 56.0119 46.852 55.9554 46.8547C52.1896 46.9863 48.433 47.3119 44.7006 47.83C41.5462 48.2687 38.1539 49.2113 35.3029 50.1633C32.0739 51.2273 29.0175 52.59 26.1338 54.2513C22.0042 56.6313 15.9195 61.564 18.9665 66.968C19.5218 67.9527 20.0537 68.7087 20.567 69.2407C24.7199 73.534 29.8994 75.844 35.9655 77.8833C35.9817 77.8889 35.9991 77.8903 36.0161 77.8873C36.033 77.8844 36.049 77.8773 36.0624 77.8666C36.0759 77.8559 36.0865 77.842 36.0932 77.8262C36.0999 77.8104 36.1025 77.7931 36.1008 77.776L35.3682 72.4327C35.362 72.3846 35.345 72.3386 35.3183 72.2981C35.2916 72.2577 35.256 72.2239 35.2142 72.1993C33.4569 71.1595 32.0722 69.5918 31.2573 67.7193C29.3208 63.4027 31.1173 58.4653 34.9529 56.0993C36.6947 55.0271 38.74 54.5557 40.7753 54.7571C42.8107 54.9586 44.7239 55.8218 46.2218 57.2147C47.8316 58.6847 49.1288 61.2047 49.2175 63.5427C49.3388 66.7953 48.0369 69.3247 45.5685 71.49C45.5349 71.5182 45.5088 71.5542 45.4925 71.5949C45.4763 71.6357 45.4703 71.6798 45.4752 71.7233C46.2451 77.58 47.7383 83.6 49.1475 89.0133C50.37 93.6987 52.3671 98.804 55.1948 103.205C56.6647 105.491 58.4472 107.498 60.491 108.753C62.9454 110.261 65.3905 110.209 67.8169 108.599C70.9246 106.537 72.6931 103.774 74.6762 100.097C76.1866 97.294 77.3912 94.337 78.2692 91.2767C78.2658 91.2573 78.2553 91.2399 78.2398 91.2278C78.2242 91.2157 78.2048 91.2099 78.1852 91.2113L71.9512 91.5053C71.9022 91.5083 71.8549 91.5241 71.8139 91.5511C71.773 91.5781 71.7398 91.6155 71.7178 91.6593C71.156 92.8526 70.3243 93.8988 69.2885 94.7153C68.2527 95.5317 67.0412 96.0959 65.7498 96.3633C64.1453 96.7361 62.4676 96.642 60.9149 96.0921C59.3621 95.5423 57.9991 94.5595 56.9867 93.26C54.3829 89.886 54.3876 85.8027 56.9727 82.4333C58.1926 80.8262 59.9557 79.7181 61.9328 79.316C64.7325 78.6953 67.3643 79.3907 69.8327 81.402C69.8997 81.4566 69.9843 81.4848 70.0707 81.4813C73.9436 81.3553 77.7232 81.024 81.4142 80.4873C84.3072 80.0673 87.7789 79.1433 90.3173 78.4247C93.9323 77.3928 97.4292 75.9852 100.751 74.2247C104.167 72.4233 108.375 69.404 109.57 65.6053C111.436 59.6833 102.851 54.3773 98.5951 52.5293C95.6228 51.2367 93.3223 50.35 91.6938 49.8693C91.6791 49.864 91.6632 49.8625 91.6477 49.865C91.6322 49.8674 91.6176 49.8737 91.6052 49.8833C91.5922 49.8945 91.5825 49.909 91.5772 49.9253C91.5736 49.9407 91.5689 49.9567 91.5725 49.972Z" fill="black"/>
</svg>
