<svg xmlns="http://www.w3.org/2000/svg" viewBox="0 0 30 30" fill="none">
  <path d="M29.054 20.762v-9.161h-.001a2 2 0 0 0-1.414-1.892l.001-.002-2.998-.854-.003.011-4.301 9.101-4.493-11.611.002-.007-4.629-1.319a2.392 2.392 0 0 0-3.023 2.293h-.001v13.798h.001a2.265 2.265 0 0 0 2.479 2.236v.001l1.878-.182v-14.431l5.376 13.891.002.016 4.094-.4.004.002v-.004l5.014-10.624v7.653h-.002l.001.098a5.53 5.53 0 0 1-4.748 5.459l-12.947 1.262a4.095 4.095 0 0 1-4.422-4.077v-15.412a4.437 4.437 0 0 1 5.775-4.228l15.3 4.359.001-.001a.816.816 0 0 0 1.063-.782.822.822 0 0 0-.563-.779l-.002.006.002-.006-16.518-4.712a7.377 7.377 0 0 0-2.582-.464c-4.078 0-7.395 3.316-7.4 7.394v15.805c0 3.75 3.053 6.801 6.806 6.801.191 0 .386-.008.575-.024v.001l14.806-1.438c.003 0 .007 0 .009-.002h.021v-.002a7.65 7.65 0 0 0 6.84-7.627c-.001-.047-.001-.098-.003-.146z" fill="#F86F11"/>
</svg>
