<svg data-v-1fb8bf13="" data-v-edf28e44="" class="logo-icon" width="28" height="30" viewBox="0 0 28 30" fill="none" xmlns="http://www.w3.org/2000/svg"><path data-v-1fb8bf13="" d="M16.0373 18.7861C15.9934 18.7136 15.9469 18.6411 15.8978 18.5685L15.3297 17.8769C14.5859 17.5272 14.4568 17.5194 13.9713 17.4521C13.0157 17.32 12.0163 17.3277 11.2416 17.3407C11.0479 17.7163 10.7896 18.7706 9.27889 19.6772C6.91591 21.0968 0.451936 20.8714 0 20.9232C0.131707 21.0657 2.88206 26.9355 2.88206 26.9355C5.30443 27.2645 11.0092 26.3941 14.2838 23.4281C15.1179 22.6717 15.8126 21.8868 16.169 20.7911C16.3782 20.1461 16.3936 19.3975 16.0347 18.7835L16.0373 18.7861Z" fill="#EFCF14"></path><path data-v-1fb8bf13="" d="M15.6371 18.2496C15.2756 17.7808 14.4027 17.4958 13.9998 17.4596C13.4988 17.4129 12.9668 17.5321 12.4633 17.5709C12.3031 17.5839 10.6245 17.8093 10.0021 17.6823C9.41334 17.5632 8.35452 17.3689 7.58236 16.5581L7.32669 16.2965C7.17949 16.141 7.06844 16.0115 7.02454 15.9183C6.98064 15.825 6.50804 15.2292 6.34793 14.6257C6.19298 14.0558 6.18265 13.5092 6.24204 13.2761C6.44089 13.2787 6.95481 13.2735 7.34735 13.245C8.50689 13.1673 9.42625 13.1466 10.1158 13.2269C10.7201 13.2968 11.203 13.5947 11.4199 13.8175C12.2877 14.7163 14.5318 17.0373 15.2214 17.7419C15.2782 17.8015 15.5493 18.1382 15.6397 18.247L15.6371 18.2496Z" fill="#AA7F05"></path><path data-v-1fb8bf13="" d="M17.4729 7.44252C17.1992 7.46584 16.9874 7.48656 16.7731 7.50729C15.9493 7.58759 15.1229 7.64199 14.3042 7.75596C13.1189 7.91916 11.9516 8.19115 10.8179 8.57971C9.78229 8.93459 8.79577 9.38532 7.93322 10.0795C7.06809 10.7764 6.44829 11.727 6.314 12.8564C6.22103 13.6258 6.29851 14.2941 6.5361 15.022C6.66264 15.408 7.13782 16.2654 7.96938 16.9078C7.96938 16.9078 7.94614 16.9156 7.31084 16.4338C6.55417 15.8613 3.13496 12.0793 3.13496 12.0793C2.48675 11.2556 2.21559 10.5277 2.14328 10.1365C1.95992 9.16514 1.93926 8.36211 2.33439 7.34409C2.72951 6.32607 3.31831 5.67847 4.06982 5.12153C4.8833 4.51797 5.97828 4.2667 6.95704 4.01284C7.89707 3.76935 8.83709 3.52585 9.79262 3.36266C10.7017 3.20723 11.9697 3.09325 12.889 3C13.279 3.3497 15.7659 5.7225 16.9461 6.91149C17.1088 7.07469 17.2715 7.23788 17.4729 7.44252Z" fill="#EFCF14"></path></svg>