<?xml version="1.0" encoding="UTF-8"?>
<svg id="_图层_3" data-name="图层 3" xmlns="http://www.w3.org/2000/svg" viewBox="0 0 160 160">
  <g>
    <path d="M59.47,83.67c-.59,0-1.2-.15-1.75-.47-1.67-.97-2.25-3.11-1.28-4.78l7.47-12.95c1.72-2.98,1.72-6.55,0-9.53-1.72-2.98-4.81-4.76-8.25-4.76h-14.95c-1.93,0-3.5-1.57-3.5-3.5s1.57-3.5,3.5-3.5h14.95s0,0,0,0c5.97,0,11.33,3.09,14.31,8.26,2.99,5.17,2.99,11.35,0,16.53l-7.47,12.95c-.65,1.12-1.83,1.75-3.03,1.75Z"/>
    <circle cx="54.18" cy="61.57" r="6.5"/>
  </g>
  <g>
    <path d="M69.59,65.81c-1.93,0-3.5-1.57-3.5-3.5s1.57-3.5,3.5-3.5h14.95c3.44,0,6.53-1.78,8.25-4.77,1.72-2.98,1.72-6.55,0-9.53l-7.48-12.94c-.97-1.67-.39-3.81,1.28-4.78,1.67-.97,3.81-.39,4.78,1.28l7.48,12.94c2.99,5.17,2.99,11.35,0,16.53s-8.34,8.26-14.31,8.27h-14.95Z"/>
    <circle cx="83.05" cy="48.42" r="6.5"/>
  </g>
  <g>
    <path d="M108.87,85.1c-5.97,0-11.33-3.09-14.31-8.26l-7.48-12.95c-.97-1.67-.39-3.81,1.28-4.78,1.67-.97,3.81-.39,4.78,1.28l7.48,12.95c1.72,2.98,4.81,4.76,8.25,4.76s6.53-1.78,8.25-4.77l7.47-12.95c.97-1.67,3.11-2.25,4.78-1.28,1.67.97,2.25,3.11,1.28,4.78l-7.47,12.95c-2.99,5.18-8.34,8.27-14.32,8.27Z"/>
    <circle cx="108.87" cy="66.86" r="6.5"/>
  </g>
  <g>
    <path d="M104.33,115.82c-5.98,0-11.33-3.09-14.31-8.26-2.99-5.17-2.99-11.35,0-16.53l7.47-12.95c.97-1.67,3.11-2.25,4.78-1.28,1.67.97,2.25,3.11,1.28,4.78l-7.47,12.95c-1.72,2.98-1.72,6.54,0,9.53s4.81,4.76,8.25,4.76h14.95c1.93,0,3.5,1.56,3.5,3.5s-1.57,3.5-3.5,3.5h-14.95s0,0,0,0Z"/>
    <circle cx="105.82" cy="98.43" r="6.5"/>
  </g>
  <g>
    <path d="M71.66,133.68c-1.21,0-2.39-.63-3.03-1.75l-7.48-12.94c-2.99-5.17-2.99-11.35,0-16.53s8.34-8.26,14.31-8.27h14.95c1.93,0,3.5,1.56,3.5,3.5s-1.57,3.5-3.5,3.5h-14.95c-3.44,0-6.53,1.78-8.25,4.77-1.72,2.98-1.72,6.55,0,9.53l7.48,12.94c.97,1.67.39,3.81-1.28,4.78-.55.32-1.15.47-1.75.47Z"/>
    <circle cx="76.95" cy="111.58" r="6.5"/>
  </g>
  <g>
    <path d="M69.89,101.36c-1.21,0-2.39-.63-3.03-1.75l-7.48-12.95c-1.72-2.98-4.81-4.76-8.25-4.76s-6.53,1.78-8.25,4.76l-7.47,12.95c-.97,1.67-3.11,2.25-4.78,1.28-1.67-.97-2.25-3.11-1.28-4.78l7.47-12.95c2.99-5.17,8.34-8.26,14.32-8.26s11.33,3.09,14.31,8.26l7.48,12.95c.97,1.67.39,3.81-1.28,4.78-.55.32-1.15.47-1.75.47Z"/>
    <circle cx="51.13" cy="93.14" r="6.5"/>
  </g>
</svg>